# xmcd
#
# Track frame offsets:
#	150
#	2286
#	16447
#	27791
#	46950
#	58308
#	77948
#	87542
#	107414
#	118137
#	127374
#	140204
#	151815
#	169744
#	180201
#	189398
#	197850
#	210719
#	249304
#	264077
#	276996
#	291268
#	305201
#	318666
#	331594
#	345090
#
# Disc length: 4800 seconds
#
# Revision: 0
# Processed by: cddbd v1.5.2PL0 Copyright (c) Steve Scherf et al.
# Submitted via: EasyCDDAExtractor 12.0.7.1
#
DISCID=7512be1a
DTITLE=Fats Domino - A New Year's Eve Celebration
DYEAR=2012
DGENRE=Rhythm and Blues
TTITLE0=Introduction
TTITLE1=I'm Walkin'
TTITLE2=Blue Monday
TTITLE3=When My Dreamboat Comes Home
TTITLE4=Poor Me
TTITLE5=Let The Four Winds Blow
TTITLE6=I'm In Love Again
TTITLE7=Jambalaya (On The Bayou)
TTITLE8=Walking To New Orleans
TTITLE9=Hello Josephine (My Girl Josephine)
TTITLE10=Red Sails In The Sunset
TTITLE11=Blueberry Hill
TTITLE12=The Lord Is Blessing Me (Auld Lang Syne)
TTITLE13=Ain't That A Ashame
TTITLE14=I Want To Walk You Home
TTITLE15=I'm Ready
TTITLE16=So Long
TTITLE17=When The Saints - Sentimental Journey
TTITLE18=Whiskey Heaven (bonus track)
TTITLE19=I'm Walkin' (bonus track)
TTITLE20=What A Price (bonus track)
TTITLE21=Hello Josephine (bonus track)
TTITLE22=My Blue Heaven (bonus track)
TTITLE23=Honey Chile (bonus track)
TTITLE24=Red Sails In The Sunset (bonus track)
TTITLE25=When The Saints Go Marching In (bonus track)
EXTD=
EXTT0=
EXTT1=
EXTT2=
EXTT3=
EXTT4=
EXTT5=
EXTT6=
EXTT7=
EXTT8=
EXTT9=
EXTT10=
EXTT11=
EXTT12=
EXTT13=
EXTT14=
EXTT15=
EXTT16=
EXTT17=
EXTT18=
EXTT19=
EXTT20=
EXTT21=
EXTT22=
EXTT23=
EXTT24=
EXTT25=
PLAYORDER=
